<?xml version="1.0" encoding="UTF-8" standalone="no"?>
<svg
   xmlns:dc="http://purl.org/dc/elements/1.1/"
   xmlns:cc="http://creativecommons.org/ns#"
   xmlns:rdf="http://www.w3.org/1999/02/22-rdf-syntax-ns#"
   xmlns:svg="http://www.w3.org/2000/svg"
   xmlns="http://www.w3.org/2000/svg"
   xmlns:sodipodi="http://sodipodi.sourceforge.net/DTD/sodipodi-0.dtd"
   xmlns:inkscape="http://www.inkscape.org/namespaces/inkscape"
   height="400"
   version="1"
   width="300"
   id="svg2"
   inkscape:version="0.91 r13725"
   sodipodi:docname="Light_Yellow_060.svg">
  <metadata
     id="metadata12">
    <rdf:RDF>
      <cc:Work
         rdf:about="">
        <dc:format>image/svg+xml</dc:format>
        <dc:type
           rdf:resource="http://purl.org/dc/dcmitype/StillImage" />
      </cc:Work>
    </rdf:RDF>
  </metadata>
  <defs
     id="defs10" />
  <sodipodi:namedview
     pagecolor="#ffffff"
     bordercolor="#666666"
     borderopacity="1"
     objecttolerance="10"
     gridtolerance="10"
     guidetolerance="10"
     inkscape:pageopacity="0"
     inkscape:pageshadow="2"
     inkscape:window-width="1334"
     inkscape:window-height="854"
     id="namedview8"
     showgrid="false"
     inkscape:zoom="0.59"
     inkscape:cx="-75.423729"
     inkscape:cy="200"
     inkscape:window-x="0"
     inkscape:window-y="23"
     inkscape:window-maximized="0"
     inkscape:current-layer="svg2" />
  <g
     transform="rotate(-60, 150, 200)"
     id="g4"
     style="fill:#ffff00">
    <path
       d="M172.727 213.895l70.265 21.785 5.144 1.61 4.484 2.7 3.383 4.224 1.954 5.133.29 5.384-1.43 5.21-3.076 4.615-4.296 3.505-4.904 1.825-5.002-.215-4.973-1.73-4.943-2.548-.985-.556-55.91-50.94zm-25.368-12.507c-.764-1.47-.19-3.282 1.28-4.044 1.47-.762 3.283-.188 4.045 1.282.763 1.47.188 3.282-1.282 4.044-1.47.763-3.282.188-4.044-1.282z"
       fill-rule="evenodd"
       fill="#0f0"
       id="path6"
       style="fill:#ffff00" />
  </g>
</svg>
